<?xml version="1.0" encoding="utf-8"?>
<svg width="256px" height="256px" viewBox="0 0 256 256" version="1.1" xmlns:xlink="http://www.w3.org/1999/xlink" xmlns="http://www.w3.org/2000/svg">
  <defs>
    <path d="M256 0L256 0L256 256L0 256L0 0L256 0Z" id="path_1" />
    <clipPath id="clip_1">
      <use xlink:href="#path_1" clip-rule="evenodd" fill-rule="evenodd" />
    </clipPath>
  </defs>
  <g id="section.dark" clip-path="url(#clip_1)">
    <path d="M256 0L256 0L256 256L0 256L0 0L256 0Z" id="section.dark" fill="none" stroke="none" />
    <path d="M99.7982 26.2552L161.266 3.90325Q161.492 3.82123 161.722 3.75287Q161.952 3.68452 162.186 3.63008Q162.419 3.57564 162.656 3.53532Q162.893 3.49499 163.131 3.46892Q163.37 3.44285 163.609 3.43114Q163.849 3.41942 164.089 3.4221Q164.329 3.42477 164.569 3.44183Q164.808 3.45889 165.046 3.49027Q165.284 3.52165 165.52 3.56724Q165.755 3.61283 165.988 3.67247Q166.22 3.7321 166.449 3.80557Q166.677 3.87904 166.901 3.96607Q167.125 4.0531 167.343 4.15339Q167.561 4.25368 167.772 4.36685Q167.984 4.48003 168.189 4.6057Q168.393 4.73136 168.59 4.86906Q168.786 5.00676 168.974 5.15599Q169.162 5.30523 169.341 5.46546Q169.52 5.6257 169.688 5.79636Q169.857 5.96702 170.015 6.1475Q170.174 6.32797 170.321 6.5176Q170.468 6.70724 170.603 6.90535Q170.739 7.10347 170.862 7.30935Q170.986 7.51523 171.096 7.72813Q171.207 7.94104 171.305 8.16021Q171.403 8.37937 171.487 8.60401Q171.572 8.82865 171.643 9.05795Q171.714 9.28726 171.771 9.5204Q171.828 9.75354 171.871 9.98968Q171.914 10.2258 171.943 10.4641Q171.971 10.7024 171.986 10.942Q172 11.1816 172 11.4216L172 244.579Q172 244.819 171.986 245.058Q171.971 245.298 171.943 245.536Q171.914 245.774 171.871 246.01Q171.828 246.247 171.771 246.48Q171.714 246.713 171.643 246.942Q171.572 247.172 171.487 247.396Q171.403 247.621 171.305 247.84Q171.207 248.059 171.096 248.272Q170.986 248.485 170.862 248.691Q170.739 248.897 170.603 249.095Q170.468 249.293 170.321 249.483Q170.174 249.672 170.015 249.853Q169.857 250.033 169.688 250.204Q169.52 250.374 169.341 250.535Q169.162 250.695 168.974 250.844Q168.786 250.993 168.59 251.131Q168.393 251.269 168.189 251.394Q167.984 251.52 167.772 251.633Q167.561 251.747 167.343 251.847Q167.125 251.947 166.901 252.034Q166.677 252.121 166.449 252.195Q166.22 252.268 165.988 252.328Q165.755 252.387 165.52 252.433Q165.284 252.479 165.046 252.51Q164.808 252.541 164.569 252.558Q164.329 252.575 164.089 252.578Q163.849 252.581 163.609 252.569Q163.37 252.557 163.131 252.531Q162.893 252.505 162.656 252.465Q162.419 252.425 162.186 252.37Q161.952 252.316 161.722 252.247Q161.492 252.179 161.266 252.097L99.7981 229.745Q99.3674 229.588 98.943 229.415Q98.5185 229.242 98.101 229.053Q97.6835 228.864 97.2735 228.659Q96.8635 228.455 96.4617 228.234Q96.0598 228.014 95.6666 227.778Q95.2735 227.543 94.8896 227.292Q94.5057 227.042 94.1316 226.777Q93.7576 226.512 93.3939 226.233Q93.0303 225.955 92.6775 225.662Q92.3247 225.369 91.9834 225.063Q91.6421 224.758 91.3127 224.439Q90.9833 224.12 90.6663 223.789Q90.3493 223.458 90.0452 223.115Q89.7411 222.773 89.4503 222.418Q89.1594 222.064 88.8824 221.699Q88.6053 221.334 88.3424 220.958Q88.0794 220.583 87.831 220.198Q87.5826 219.813 87.3491 219.418Q87.1156 219.024 86.8973 218.621Q86.679 218.218 86.4762 217.807Q86.2735 217.396 86.0866 216.978Q85.8996 216.559 85.7288 216.134Q85.558 215.709 85.4036 215.277Q85.2492 214.846 85.1113 214.408Q84.9735 213.971 84.8524 213.529Q84.7313 213.087 84.6273 212.641Q84.5231 212.195 84.4362 211.745Q84.3492 211.295 84.2795 210.842Q84.2097 210.389 84.1573 209.933Q84.1049 209.478 84.07 209.021Q84.035 208.564 84.0175 208.106Q84 207.648 84 207.19L84 48.8103Q84 48.3519 84.0175 47.894Q84.035 47.436 84.07 46.979Q84.1049 46.522 84.1573 46.0667Q84.2097 45.6114 84.2794 45.1584Q84.3492 44.7054 84.4362 44.2555Q84.5231 43.8055 84.6272 43.3591Q84.7313 42.9128 84.8524 42.4708Q84.9735 42.0287 85.1113 41.5916Q85.2492 41.1545 85.4036 40.723Q85.558 40.2915 85.7288 39.8662Q85.8996 39.4409 86.0866 39.0224Q86.2735 38.604 86.4762 38.1929Q86.679 37.7819 86.8973 37.3789Q87.1156 36.9759 87.3491 36.5816Q87.5826 36.1872 87.831 35.8021Q88.0794 35.4169 88.3424 35.0415Q88.6053 34.6661 88.8824 34.3011Q89.1595 33.936 89.4503 33.5817Q89.7411 33.2275 90.0452 32.8846Q90.3493 32.5418 90.6663 32.2107Q90.9833 31.8797 91.3127 31.5611Q91.6421 31.2424 91.9834 30.9365Q92.3247 30.6307 92.6775 30.3381Q93.0303 30.0455 93.3939 29.7665Q93.7576 29.4876 94.1316 29.2228Q94.5057 28.9579 94.8896 28.7076Q95.2735 28.4572 95.6666 28.2217Q96.0598 27.9862 96.4617 27.7658Q96.8636 27.5455 97.2736 27.3407Q97.6836 27.1358 98.1011 26.9468Q98.5186 26.7578 98.943 26.5848Q99.3674 26.4118 99.7982 26.2552Z" id="Rectangle" fill="#FFFFFF" fill-rule="evenodd" stroke="none" />
  </g>
</svg>